<svg width="250" height="250" viewBox="0 0 250 250" fill="none" 
xmlns="http://www.w3.org/2000/svg">
<g clip-path="url(#clip0_1_422)">
<mask id="mask0_1_422" style="mask-type:luminance" 
maskUnits="userSpaceOnUse" x="0" y="0" width="250" height="250">
<path d="M250 0H0V250H250V0Z" fill="white"/>
</mask>
<g mask="url(#mask0_1_422)">
<path d="M133.029 127.618C134.996 86.55 160.544 91.1365 161.001 
90.6795M88.9259 91.2389C88.9259 91.2389 117.034 89.6869 118.405 
127.161M106.382 83C106.382 83 121.139 88.3634 122.975 124.876M144.606 
83.2376C144.606 83.2376 130.698 84.1133 128.916 123.962" 
stroke="url(#paint0_linear_1_422)" stroke-width="1.33" 
stroke-linecap="round"/>
<path d="M125.818 94.0863C128.056 94.0863 129.868 95.8983 129.868 
98.1366C129.868 100.375 128.056 102.195 125.818 102.195C123.579 102.195 
121.759 100.375 121.759 98.1366C121.759 95.8983 123.579 94.0863 125.818 
94.0863ZM125.818 120.683C128.056 120.683 129.868 122.495 129.868 
124.734C129.868 126.972 128.056 128.792 125.818 128.792C123.579 128.792 
121.759 126.972 121.759 124.734C121.759 122.495 123.579 120.683 125.818 
120.683ZM121.144 97.2183C124.391 97.2183 127.023 99.8501 127.023 
103.097C127.023 106.344 124.391 108.975 121.144 108.975C117.897 108.975 
115.257 106.344 115.257 103.097C115.257 99.8501 117.897 97.2183 121.144 
97.2183ZM124.325 103.884C127.572 103.884 130.204 106.516 130.204 
109.763C130.204 113.009 127.572 115.641 124.325 115.641C121.079 115.641 
118.447 113.009 118.447 109.763C118.447 106.516 121.079 103.884 124.325 
103.884ZM125.121 111.697C128.367 111.697 130.999 114.329 130.999 
117.576C130.999 120.823 128.367 123.455 125.121 123.455C121.874 123.455 
119.242 120.823 119.242 117.576C119.242 114.329 121.874 111.697 125.121 
111.697ZM130.351 97.62C133.442 97.62 135.96 100.129 135.96 103.228C135.96 
106.319 133.442 108.836 130.351 108.836C127.261 108.836 124.743 106.319 
124.743 103.228C124.743 100.129 127.261 97.62 130.351 97.62ZM127.736 
104.532C130.827 104.532 133.344 107.041 133.344 110.14C133.344 113.231 
130.827 115.739 127.736 115.739C124.637 115.739 122.128 113.231 122.128 
110.14C122.128 107.041 124.637 104.532 127.736 104.532ZM127.22 
112.345C130.319 112.345 132.828 114.854 132.828 117.953C132.828 121.044 
130.319 123.561 127.22 123.561C124.129 123.561 121.612 121.044 121.612 
117.953C121.612 114.854 124.129 112.345 127.22 112.345Z" 
fill="url(#paint1_linear_1_422)"/>
<g opacity="0.5">
<path d="M125.675 160.104C123.748 161.899 94.3752 169.421 65.933 
167.509C20.918 164.484 0 165.122 0 165.122C0 165.122 20.5744 125.655 
64.3847 125.644C93.0663 125.637 123.735 158.296 125.675 160.104Z" 
fill="#75CAF7"/>
</g>
<g opacity="0.75">
<path d="M124.976 159.965C122.274 159.852 92.7994 150.885 63.7577 
145.505C37.0777 140.564 8.92255 134.075 8.92255 134.075C8.92255 134.075 
37.9186 95.7358 81.4639 110.424C125.009 125.112 124.868 157.314 124.976 
159.965Z" fill="#75CAF7"/>
</g>
<path d="M125.011 159.956C123.921 157.976 92.5197 151.69 92.209 
122.449C91.7026 74.8671 126.168 116.67 126.168 116.67C126.168 116.67 
157.674 76.2418 158.575 121.696C159.173 151.845 126.133 157.914 125.011 
159.956Z" fill="#75CAF7"/>
<g opacity="0.5">
<path d="M124.325 160.104C126.252 161.899 155.625 169.421 184.067 
167.509C229.082 164.484 250 165.122 250 165.122C250 165.122 229.426 
125.655 185.615 125.644C156.934 125.637 126.265 158.296 124.325 160.104Z" 
fill="#75CAF7"/>
</g>
<g opacity="0.75">
<path d="M126.508 159.965C129.21 159.852 158.685 150.885 187.727 
145.505C214.407 140.564 242.562 134.075 242.562 134.075C242.562 134.075 
213.566 95.7358 170.02 110.424C126.475 125.112 126.616 157.314 126.508 
159.965Z" fill="#75CAF7"/>
</g>
</g>
</g>
<defs>
<linearGradient id="paint0_linear_1_422" x1="127.258" y1="128.896" 
x2="126.861" y2="71.4195" gradientUnits="userSpaceOnUse">
<stop stop-color="#FF7D58"/>
<stop offset="0.5" stop-color="#FFBEAC"/>
<stop offset="1" stop-color="white"/>
</linearGradient>
<linearGradient id="paint1_linear_1_422" x1="126.331" y1="123.675" 
x2="125.112" y2="89.8885" gradientUnits="userSpaceOnUse">
<stop stop-color="#FF7D58"/>
<stop offset="0.5" stop-color="#FFAF94"/>
<stop offset="1" stop-color="#FFE1CF"/>
</linearGradient>
<clipPath id="clip0_1_422">
<rect width="250" height="250" fill="white"/>
</clipPath>
</defs>
</svg>

